<svg><path d="M18.9 20.77V0h4.93v20.77zM0 10.39a8.56 8.56 0 1 1 8.56 8.56A8.56 8.56 0 0 1 0 10.4zm5.97-.01a2.6 2.6 0 1 0 2.6-2.6 2.6 2.6 0 0 0-2.6 2.6zm27 5.2l-1.88-1.87-1.87 1.88H25.9V12.3l1.9-1.9-1.9-1.89V5.18h3.27l1.92 1.92 1.93-1.92h3.27v3.33l-1.9 1.9 1.9 1.9v3.27z"></path><svg>
    <!-- car -->
    <svg><path fill="black" d="M31.749 16.384a1.66 1.66 0 0 0-2.082-1.08l-.918.29-1.584-3.346-.5-.168a24.015 24.015 0 0 0-7.168-.998 18.012 18.012 0 0 0-6.537 1.025l-.45.186-1.517 3.503-.643-.204a1.66 1.66 0 1 0-1.002 3.163l.127.04-.1.185a6.093 6.093 0 0 0-.615 2.262c-.014.369 0 1.11.027 1.831l.015 3.989v.039c-.023.363.016.726.117 1.076a1.102 1.102 0 0 0 1.114.74h2.363a1.103 1.103 0 0 0 1.114-.74c.1-.35.14-.714.117-1.078v-.436c2.762.243 4.533.364 6.285.364 1.739 0 3.45-.12 6.092-.357v.43a3.19 3.19 0 0 0 .117 1.076 1.102 1.102 0 0 0 1.114.742h2.363a1.104 1.104 0 0 0 1.114-.741c.1-.35.14-.713.117-1.076l.015-3.96v-.034c.051-.732.104-1.49.092-1.93a5.602 5.602 0 0 0-.636-2.35l-.105-.21.478-.15a1.662 1.662 0 0 0 1.076-2.083Zm-18.375-3.202.02-.007a16.884 16.884 0 0 1 6.098-.938c2.3-.032 4.593.283 6.8.937l.034.011 1.3 2.747a26.47 26.47 0 0 1-6.418.614h-1.07a42.342 42.342 0 0 1-8.027-.45l1.263-2.914Zm-.91 13.92a3.26 3.26 0 0 1-.04.662H9.987a3.253 3.253 0 0 1-.04-.662v-.872c.16.081.332.132.51.15l2.01.183v.5l-.004.04Zm17.198-.038v.04c.01.221-.003.443-.039.662h-2.437a3.255 3.255 0 0 1-.04-.662v-.534l1.883-.175a1.57 1.57 0 0 0 .635-.204l-.002.873Zm.651-9.697-1.767.56.716 1.433c.301.573.475 1.205.508 1.852.01.36-.036 1.05-.08 1.686h-.013v.209c-.027.4-.052.777-.063 1.05-.016.431-.286 1.057-.694 1.095-4.491.421-6.75.633-9.018.633-2.268 0-4.65-.216-9.344-.647-.274-.026-.465-.48-.525-.892-.043-.3-.078-.794-.102-1.304v-.146a25.401 25.401 0 0 1-.022-1.612 4.868 4.868 0 0 1 .484-1.77l.764-1.393-1.467-.465a.506.506 0 0 1 .304-.963l1.638.518.015-.034c2.453.436 4.946.612 7.436.525h2.127a26.81 26.81 0 0 0 6.92-.707l.487-.15 1.393-.44a.513.513 0 0 1 .633.328.507.507 0 0 1-.33.634Z" fill="#3A77FF"></path>
    </svg>
    <svg><path d="M4.54 12.08a1.8 1.8 0 1 0 0 3.6 1.8 1.8 0 0 0 0-3.6zm0 2.46a.65.65 0 1 1 0-1.3.65.65 0 0 1 0 1.3zm14.57-2.46a1.8 1.8 0 1 0 0 3.6 1.8 1.8 0 0 0 0-3.6zm0 2.46a.65.65 0 1 1 0-1.3.65.65 0 0 1 0 1.3zm-11.71.28h8.96v1.15H7.4v-1.15z"></path></svg>
    <!-- building -->
    <svg><path d="M22.78 21.81V7.8L15.3 5.3v1.58l5.98 2V21.8H13.8V.7H1.22v21.1h-.6v1.5h22.76v-1.5h-.6zM12.3 4.3v17.5H2.72V2.2h9.58v2.1z"></path>
    <path d="M7.98 4.37h2.42v1.21H7.98v-1.2zm-3.63 0h2.42v1.21H4.35v-1.2zM7.98 6.8h2.42V8H7.98V6.8zm-3.63 0h2.42V8H4.35V6.8zm3.63 3.62h2.42v1.21H7.98v-1.2zm-3.63 0h2.42v1.21H4.35v-1.2zm3.63 2.42h2.42v1.21H7.98v-1.2zm-3.63 0h2.42v1.21H4.35v-1.2zm3.63 3.63h2.42v1.21H7.98v-1.2zm-3.63 0h2.42v1.21H4.35v-1.2zm13.31-6.05h1.21v1.21h-1.2v-1.2zm-2.42 0h1.21v1.21h-1.2v-1.2zm2.42 2.42h1.21v1.21h-1.2v-1.2zm-2.42 0h1.21v1.21h-1.2v-1.2zm2.42 3.63h1.21v1.21h-1.2v-1.2zm-2.42 0h1.21v1.21h-1.2v-1.2z"></path></svg>
    